<svg width="91" height="26" xmlns="http://www.w3.org/2000/svg">

 <g>
  <title>background</title>
  <rect fill="none" id="canvas_background" height="402" width="582" y="-1" x="-1"/>
 </g>
 <g>
  <title>Layer 1</title>
  <path id="svg_1" fill="#FF9000" d="m88.1519,0.22583l-36.6107,0c-1.139,0.12875 -1.7655,0.83075 -1.8762,2.11232l0,21.20635c0.1096,1.2796 0.7347,1.9789 1.8661,2.1128l36.6298,0c1.1318,-0.1339 1.7565,-0.8337 1.8663,-2.1128l0,-21.20635c-0.1104,-1.28157 -0.737,-1.98357 -1.8753,-2.11232z" clip-rule="evenodd" fill-rule="evenodd"/>
  <path id="svg_2" fill="black" d="m62.4086,9.99913c-0.274,-0.39098 -0.681,-0.71284 -1.2221,-0.96446c-0.4892,-0.22745 -1.0319,-0.35123 -1.6284,-0.37314c-0.0103,-0.00067 -0.0197,-0.00135 -0.0298,-0.0018c-1.232,-0.06618 -2.8078,0.29611 -3.5432,1.00918l0,-4.99667l-2.9231,0l0,15.37216l2.9231,0l0,-5.5778c0,-0.9371 0.0887,-1.6448 0.2655,-2.1234c0.1771,-0.4797 0.4558,-0.8378 0.8374,-1.0754c0.3814,-0.2374 0.8146,-0.3566 1.3004,-0.3566c0.4228,0 0.7753,0.0928 1.0558,0.278c0.2808,0.1855 0.4769,0.4355 0.5876,0.7499c0.1107,0.3149 0.1665,1.0555 0.1665,2.2228l0,5.8825l2.9229,0l0,-6.5326c0,-0.9994 -0.0504,-1.7371 -0.151,-2.2121c-0.1004,-0.4757 -0.288,-0.9091 -0.5616,-1.30057z" clip-rule="evenodd" fill-rule="evenodd"/>
  <path id="svg_3" fill="black" d="m71.9469,13.6063c0,1.594 -0.0726,2.5955 -0.2183,3.0045c-0.1458,0.4086 -0.4163,0.7515 -0.8116,1.0268c-0.3948,0.2769 -0.8425,0.4147 -1.3418,0.4147c-0.4369,0 -0.7979,-0.1028 -1.0821,-0.3092c-0.2841,-0.2062 -0.4806,-0.4859 -0.5877,-0.8391c-0.1076,-0.353 -0.1612,-1.3121 -0.1612,-2.8785l0,-5.11681l-2.9231,0l0,7.04661c0,1.0485 0.1318,1.87 0.3948,2.464c0.2638,0.5945 0.6902,1.0558 1.28,1.3844c0.5896,0.3286 1.2551,0.4928 1.9972,0.4928c0.111,0 0.221,-0.004 0.3301,-0.0122c0.0034,0 0.0058,0 0.0087,-0.0004c1.8604,-0.0542 2.8297,-0.9051 3.3229,-1.4659l0,1.2265l2.715,0l0,-11.13581l-2.9229,0l0,4.69761z" clip-rule="evenodd" fill-rule="evenodd"/>
  <path id="svg_4" fill="black" d="m83.7693,17.1351c-0.454,0.5559 -1.0037,0.833 -1.6488,0.833c-0.8394,0 -1.5121,-0.3914 -2.0186,-1.1743c-0.3603,-0.552 -0.5407,-1.4049 -0.5407,-2.5584c0,-1.1185 0.2324,-1.9519 0.6971,-2.5006c0.4646,-0.5486 1.0472,-0.823 1.7477,-0.823c0.7143,0 1.3005,0.2814 1.7583,0.8438c0.4576,0.5626 0.6866,1.4806 0.6866,2.752c0,1.1962 -0.227,2.0712 -0.6816,2.6275zm2.3562,-7.0051c-0.6216,-0.69203 -1.456,-1.13609 -2.3651,-1.34028c-0.2604,-0.06979 -0.5578,-0.11948 -0.8885,-0.13394c-1.2022,-0.11022 -2.7464,0.37449 -3.4643,0.98186l0.1741,-4.96528l-2.9234,0l0,15.37264l2.7157,0l0,-0.8468c0.6261,0.5082 1.6308,1.0982 3.162,1.0982c0.06,0 0.117,-0.0005 0.1721,-0.0018c0.0399,0.0013 0.0795,0.0018 0.1194,0.0018c1.2831,0 2.3739,-0.5141 3.2718,-1.5413c0.8981,-1.0282 1.3468,-2.4921 1.3468,-4.3934c0,-1.839 -0.4404,-3.2491 -1.3206,-4.2317z" clip-rule="evenodd" fill-rule="evenodd"/>
  <path id="svg_5" fill="white" d="m8.443174,9.85605c-0.24425,0.36045 -0.58149,0.62525 -1.01195,0.79395c-0.43046,0.1689 -1.28444,0.2536 -2.56058,0.2536l-1.77271,0l0,-4.58826l1.56498,0c1.16702,0 1.94391,0.03704 2.33068,0.11022c0.52524,0.09599 0.95906,0.33474 1.30213,0.71691c0.34262,0.38262 0.51427,0.86756 0.51427,1.45595c0,0.47793 -0.12235,0.89715 -0.36682,1.25763zm0.46529,-6.03341c-0.59807,-0.16194 -1.88206,-0.24281 -3.85174,-0.24281l-5.19757,0l0,16.16947l3.23888,0l0,-6.0991l2.11174,0c1.46639,0 2.58613,-0.0775 3.35921,-0.2317c0.56961,-0.1252 1.12914,-0.3809 1.68017,-0.7666c0.5503,-0.3858 1.0043,-0.9173 1.3622,-1.5942c0.3574,-0.6758 0.5362,-1.51041 0.5362,-2.50356c0,-1.28655 -0.3103,-2.33616 -0.9302,-3.14883c-0.6202,-0.81223 -1.38993,-1.34008 -2.30889,-1.58267z" clip-rule="evenodd" fill-rule="evenodd"/>
  <path id="svg_6" fill="white" d="m30.491812,16.5622c-0.5439,0.6175 -1.2168,0.9263 -2.019,0.9263c-0.8027,0 -1.4774,-0.3088 -2.0246,-0.9263c-0.547,-0.618 -0.8204,-1.5079 -0.8204,-2.6693c0,-1.1619 0.2734,-2.0516 0.8204,-2.6694c0.5472,-0.6175 1.2219,-0.9262 2.0246,-0.9262c0.8022,0 1.4751,0.3087 2.019,0.9262c0.5434,0.6178 0.8149,1.5005 0.8149,2.6474c0,1.1768 -0.2715,2.0733 -0.8149,2.6913zm-2.0302,-8.79059c-1.1379,0 -2.1682,0.25342 -3.0907,0.76117c-0.9235,0.50708 -1.6361,1.24228 -2.1396,2.20562c-0.5033,0.9633 -0.7551,1.9596 -0.7551,2.9891c0,1.3455 0.2518,2.4873 0.7551,3.4244c0.5035,0.9378 1.2381,1.6493 2.205,2.134c0.9665,0.4852 1.9824,0.7287 3.0475,0.7287c1.7214,0 3.1495,-0.5832 4.2838,-1.7487c1.1343,-1.1652 1.7016,-2.6341 1.7016,-4.4067c0,-1.7568 -0.5615,-3.2112 -1.685,-4.3615c-1.1238,-1.15058 -2.5644,-1.72609 -4.3226,-1.72609z" clip-rule="evenodd" fill-rule="evenodd"/>
  <path id="svg_7" fill="white" d="m19.590647,7.81622c-0.9098,0.11723 -1.7792,0.85718 -2.1597,1.32811l0,-1.10834l-2.8561,0l0,11.71331l3.0748,0l0,-3.617c0,-1.9931 0.0854,-3.3018 0.257,-3.927c0.1714,-0.6252 0.4067,-1.0566 0.7059,-1.296c0.2991,-0.2388 0.6639,-0.3585 1.0946,-0.3585c0.4446,0 0.9259,0.1687 1.444,0.5071l0.9523,-2.70207c-0.6493,-0.38985 -1.3245,-0.5841 -2.0248,-0.5841c-0.1689,0 -0.3314,0.01558 -0.488,0.04449z" clip-rule="evenodd" fill-rule="evenodd"/>
  <path id="svg_8" fill="white" d="m46.1237,10.3855c-0.1132,-0.48516 -0.3135,-0.91928 -0.6013,-1.30167c-0.2888,-0.3824 -0.7137,-0.69658 -1.2752,-0.94278c-0.562,-0.24642 -1.1818,-0.36929 -1.8606,-0.36929c-1.2302,-0.07048 -3.2263,0.40295 -3.8295,1.3656l0,-1.10134l-2.8559,0l0,11.71338l3.0748,0l0,-5.305c0,-1.3087 0.0784,-2.2061 0.2351,-2.6908c0.1566,-0.4858 0.447,-0.8752 0.8701,-1.1698c0.4231,-0.2941 0.9008,-0.4411 1.4332,-0.4411c0.4159,0 0.7713,0.1034 1.0669,0.3088c0.2958,0.2057 0.5093,0.4948 0.6404,0.8659c0.1313,0.3718 0.197,1.1895 0.197,2.4541l0,5.9779l3.0744,0l0,-7.2793c0,-0.9047 -0.0565,-1.5994 -0.1694,-2.0846z" clip-rule="evenodd" fill-rule="evenodd"/>
 </g>
</svg>