<svg class="subscribe" width="22" height="22" viewBox="0 0 22 22" fill="none" xmlns="http://www.w3.org/2000/svg">
    <rect width="22" height="22" rx="6" fill="#FF9000"></rect>
    <path d="M15.8889 12.222H12.2222V15.8887C12.2222 16.5609 11.6722 17.1109 11 17.1109C10.3278 17.1109 9.7778 16.5609 9.7778 15.8887V12.222H6.11114C5.43892 12.222 4.88892 11.672 4.88892 10.9998C4.88892 10.3276 5.43892 9.77756 6.11114 9.77756H9.7778V6.11089C9.7778 5.43867 10.3278 4.88867 11 4.88867C11.6722 4.88867 12.2222 5.43867 12.2222 6.11089V9.77756H15.8889C16.5611 9.77756 17.1111 10.3276 17.1111 10.9998C17.1111 11.672 16.5611 12.222 15.8889 12.222Z" fill="black"></path>
</svg>